# xmcd CD database file
#
# Track frame offsets:
#	150
#	22810
#	43844
#	59354
#	80329
#	108350
#	126806
#	146348
#	163780
#	185190
#	202601
#	226571
#
# Disc length: 3445 seconds
#
# Revision: 0
# Processed by: cddbd v1.5.2PL0 Copyright (c) Steve Scherf et al.
# Submitted via: CDex 1.51
#
DISCID=930d730c
DTITLE=Cootie B. Crabtress - Gnashville
DYEAR=2010
DGENRE=Country
TTITLE0=Howlin Mad
TTITLE1=Old Song
TTITLE2=Cowboy Blues
TTITLE3=Might As Well Be A Train
TTITLE4=Shady Lady
TTITLE5=Halfway
TTITLE6=Pink Tomatoes_Redbud Radio Show 2009
TTITLE7=I Saw Robin_Redbud Radio Show 2009
TTITLE8=D.B.Y.B
TTITLE9=Bottle Is Empty
TTITLE10=In The Moment
TTITLE11=For some Grezzzzin
EXTD=YEAR: 2010
EXTT0=
EXTT1=
EXTT2=
EXTT3=
EXTT4=
EXTT5=
EXTT6=
EXTT7=
EXTT8=
EXTT9=
EXTT10=
EXTT11=
PLAYORDER=
